<svg xmlns="http://www.w3.org/2000/svg" viewBox="0 0 237.23 218.87"><defs><style>.cls-1{fill:#431e0b;}.cls-2{fill:#91634c;}.cls-3{fill:#b78872;}.cls-4{fill:#794c37;}.cls-5{fill:#431e0a;}.cls-6{fill:#5e3620;}.cls-7{fill:#b68a73;}.cls-8{fill:#754a35;}.cls-9{fill:#744a34;}.cls-10{fill:#5d341e;}.cls-11{fill:#754b37;}.cls-12{fill:#b98b72;}.cls-13{fill:#e1c9b7;}.cls-14{fill:#f3dbcb;}.cls-15{fill:#ead3c3;}.cls-16{fill:#ece2d5;}.cls-17{fill:#b49381;}.cls-18{fill:#ab8d7c;}.cls-19{fill:#b79383;}.cls-20{fill:#f6e5db;}.cls-21{fill:#b08671;}.cls-22{fill:#49220d;}.cls-23{fill:#fefefd;}.cls-24{fill:#e6d6c6;}.cls-25{fill:#e6dacf;}.cls-26{fill:#794f39;}.cls-27{fill:#775642;}.cls-28{fill:#7a5c49;}.cls-29{fill:#774f3c;}.cls-30{fill:#f7e7da;}.cls-31{fill:#77594d;}.cls-32{fill:#f1e0cf;}.cls-33{fill:#eee2d8;}.cls-34{fill:#efe2d7;}.cls-35{fill:#f0e3d8;}.cls-36{fill:#f0e3d7;}.cls-37{fill:#efe3d8;}.cls-38{fill:#ede3d6;}.cls-39{fill:#f1e4d9;}.cls-40{fill:#efe3d7;}.cls-41{fill:#f0e3d6;}.cls-42{fill:#f2e3d7;}.cls-43{fill:#efe4da;}.cls-44{fill:#eee2d6;}.cls-45{fill:#eee3d7;}.cls-46{fill:#f4e1d3;}.cls-47{fill:#eee1d4;}.cls-48{fill:#e6cdbe;}.cls-49{fill:#ede0d3;}.cls-50{fill:#eee1d5;}.cls-51{fill:#eee3d8;}.cls-52{fill:#e3d0c2;}.cls-53{fill:#e3ccbd;}.cls-54{fill:#d7c2b4;}.cls-55{fill:#eddfd2;}.cls-56{fill:#e4d3c4;}.cls-57{fill:#56372b;}.cls-58{fill:#624438;}.cls-59{fill:#402317;}.cls-60{fill:#43271a;}.cls-61{fill:#d8bdaa;}.cls-62{fill:#f3e5da;}.cls-63{fill:#e2d5c9;}.cls-64{fill:#e2d3c7;}.cls-65{fill:#daccbe;}.cls-66{fill:#d3c4b8;}.cls-67{fill:#ebded3;}.cls-68{fill:#e9e0d3;}.cls-69{fill:#e1d3c9;}.cls-70{fill:#eaddd1;}.cls-71{fill:#ece2d6;}.cls-72{fill:#f0e5db;}.cls-73{fill:#ddd2ca;}.cls-74{fill:#f0e2d9;}.cls-75{fill:#e9dfd2;}.cls-76{fill:#e9ddd0;}.cls-77{fill:#e4d7cf;}.cls-78{fill:#564133;}.cls-79{fill:#e3d6c7;}.cls-80{fill:#eee6d6;}.cls-81{fill:#a89185;}.cls-82{fill:#eee3d6;}.cls-83{fill:#e4d5ca;}.cls-84{fill:#e1d4cb;}.cls-85{fill:#e8dfd6;}.cls-86{fill:#5b473a;}.cls-87{fill:#f9f0e5;}.cls-88{fill:#fdf2e8;}.cls-89{fill:#baa494;}.cls-90{fill:#c4a597;}.cls-91{fill:#bda293;}.cls-92{fill:#917461;}.cls-93{fill:#d6cec9;}.cls-94{fill:#b59b90;}.cls-95{fill:#a68d7e;}.cls-96{fill:#3f231a;}.cls-97{fill:#431f0c;}.cls-98{fill:#421e0d;}.cls-99{fill:#421f0c;}.cls-100{fill:#462e1f;}.cls-101{fill:#4e342a;}.cls-102{fill:#482e21;}.cls-103{fill:#4c2f21;}.cls-104{font-size:15.85px;font-family:TimesNewRomanPS-BoldMT, Times New Roman;font-weight:700;letter-spacing:0.05em;}.cls-104,.cls-106{fill:#fff;}.cls-105{letter-spacing:-0.01em;}.cls-106{font-size:7.59px;font-family:MyriadPro-Regular, Myriad Pro;letter-spacing:0.05em;}.cls-107{letter-spacing:0.05em;}.cls-108{letter-spacing:-0.03em;}</style></defs><g id="Layer_2" data-name="Layer 2"><g id="Layer_1-2" data-name="Layer 1"><path class="cls-1" d="M41.11,156.44a89.11,89.11,0,0,1-11.62-31.16,25,25,0,0,1-.27-3.87c0-26.62,0-53.24-.06-79.86,0-2.5.69-3.17,3.16-3.17,21.39,0,41.75-4.22,60.34-15.31,9.41-5.62,17.72-12.51,24.15-21.47,1.39-1.93,2.09-2.3,3.76-.08,14.13,18.72,33.58,28.8,56,33.95a131.57,131.57,0,0,0,29.08,3c1.89,0,2.54.48,2.54,2.5-.08,27.32.13,54.64-.18,82-.1,9.49-3.94,18.21-8,26.7-1,2.15-2.21,4.22-3.33,6.32-.32.36-.5.82-.92,1.09a2.9,2.9,0,0,1-1.7.33c-1.88-.14-3,.46-3,2.58a3.34,3.34,0,0,1-1.81,3.16c-1.92.44-3.68.56-4-2.08,1.23-4.06,4.12-7.22,6-10.92a94,94,0,0,0,8.27-23.59,17.83,17.83,0,0,0,.14-3.58q0-35.59,0-71.18c0-4.19,0-4.17-4.38-4.21-15.72-.16-30.88-2.94-45.2-9.66a77.4,77.4,0,0,1-28.88-22.55c-2.19-2.8-2.68-2.78-5,.15C104.53,29.8,89.43,38.71,71.76,43.52a113.24,113.24,0,0,1-28,4c-6.88.12-6-.63-6,6.16,0,21.83.14,43.66-.09,65.49-.1,9.24,2.54,17.67,6.09,25.94A85.81,85.81,0,0,0,51,158.12a5.82,5.82,0,0,1,1.35,3.26c-.61,2.4-2.43,2-4.17,1.8a2.79,2.79,0,0,1-1.8-2.79c-.06-2.36-1.13-3.39-3.5-3.1A2.06,2.06,0,0,1,41.11,156.44Z"/><path class="cls-2" d="M196,156.41l.72-.52c.5,1.76,2,1,3,1,11.54.06,23.08,0,34.63.06.93,0,2.23-.53,2.7.51s-.61,1.76-1.22,2.53c-3.83,4.82-7.55,9.74-11.53,14.44-1.59,1.86-1.44,3.11,0,4.87,4,4.85,7.81,9.79,11.66,14.73.56.72,1.79,1.36,1.12,2.48-.52.86-1.65.46-2.5.46q-15.67.09-31.34.12a.77.77,0,0,1-1-.27c-.89-1.21-.77-2.63-.78-4,0-6.37,0-12.73,0-19.1,0-3.77-.31-4.08-4.09-4.09q-38.79,0-77.59,0c-1.75,0-3.64.39-5-1.25.2-1.63,1.53-1.27,2.56-1.45.7,0,1.4,0,2.1,0h3c.69,0,1.37,0,2.06,0a24.23,24.23,0,0,0,3.71-.14,19.4,19.4,0,0,1,4.17-.18h63.12a22.35,22.35,0,0,0,3.71-.12c-1-.76-2-.41-3-.41-15.66,0-31.31,0-47,0-1.37,0-3.1.59-3.83-1.38a1.25,1.25,0,0,1,.82-1.29q25.49,0,51-.07c.85,0,2.34.91,2.61-.95-2.07-1-4.32-1.6-6.25-2.87-.82-.53-2-1-1.67-2.17s1.57-.37,2.39-.53C194.83,156.66,195.47,156.92,196,156.41Z"/><path class="cls-2" d="M.36,195.37c4.46-5.6,8.86-11.23,13.39-16.76,1.08-1.31.87-2.15-.08-3.34C9.47,170,5.32,164.66,1.18,159.33c-.45-.58-1.47-1-1-2,.38-.73,1.25-.42,1.91-.42l38.82.08a10.78,10.78,0,0,1,5.27,0c-2,3.49-5.73,3.64-8.56,5.15.34,1.08.34,1.12,1.39,1.13,5.27,0,10.54-.05,15.81,0,9.15.05,18.3,0,27.46.05,1.23,0,2.89-.46,2.93,1.7-1.33,1.2-3,1-4.55,1-13.24,0-26.48,0-39.72,0a8.16,8.16,0,0,0-3.9.51c24.82.12,49-.07,73.09.11.91.33,1.93.18,2.81.63a1,1,0,0,1,.54,1c-1.28,1.75-3.2,1.35-4.94,1.35q-33.59.06-67.18,0c-5.69,0-5.69,0-5.7,5.77s0,11.35,0,17c0,1.48.12,3-1.07,4.21-9.88.44-19.77.07-29.65.19-1.19,0-2.38,0-3.56,0C.45,196.79-.2,196.49.36,195.37Z"/><path class="cls-3" d="M202.61,197.14a5.81,5.81,0,0,1,.59,0c-.06,2.43.23,4.89-.64,7.25C201,206,199,205.5,197.18,205.5q-78.7,0-157.43,0c-1.64,0-3.45-.46-4.69,1.19-1.3-3.07-.26-6.32-.72-9.45l.55-.18c1.73,2.08,4,2.47,6.6,2.47q77.41-.09,154.82,0C198.8,199.55,201.05,199.37,202.61,197.14Z"/><path class="cls-4" d="M35.06,206.72c-.22-1.59.31-2.53,2.08-2.38.3,0,.6,0,.9,0l164.52,0c.44,2.47-1.14,2.43-2.88,2.42q-26.43,0-52.85,0a19.39,19.39,0,0,0-5.32.45c-4.49,1-9.14.34-13.64,1.21-.67-.19-.72-1.59-2-.85a4.08,4.08,0,0,1-3.35.73,9.79,9.79,0,0,0-7.39,0c-2,.55-4-1.58-5.93.09-3.87-1-8,.06-11.67-1.09-.31-.61-.39.27-.13,0,0-.07.1,0,.23.18a1.09,1.09,0,0,1,.22,1.09c-3.2-2-6.78-1.77-10.34-1.77C70.05,206.77,52.55,206.73,35.06,206.72Z"/><path class="cls-5" d="M127.21,207.92a27.45,27.45,0,0,1,14.3-.7c-6.6,4.43-13.81,7.72-20.93,11.17a3.9,3.9,0,0,1-3.68,0c-6.43-3.12-12.9-6.16-19-9.9l-1.46-1.89c4.75.48,9.24-.77,13.49,1.19a2.33,2.33,0,0,1,2.75.25c3.89,2.4,7.78,3,11.79.22A2.39,2.39,0,0,1,127.21,207.92Z"/><path class="cls-6" d="M37.45,161.24c2.51-1.34,5.36-2,8.39-4.2H40.93l.18-.6c1.88.28,4.14-.81,5.58.66,1.28,1.31.13,3.59,1,5.3-3.26,1.84-6.71.9-10.07.56C36.66,162.87,36.49,161.91,37.45,161.24Z"/><path class="cls-3" d="M.36,195.37c.44,1.75,1.88,1.15,2.94,1.15,10.39,0,20.78,0,31.17,0a.32.32,0,0,1,.12.51l-.25.22c-10.72,0-21.43-.06-32.15-.15C1.24,197.11-.84,197.82.36,195.37Z"/><path class="cls-7" d="M51.76,161.3c-6.85-10.05-12.13-20.79-14.54-32.81a27.46,27.46,0,0,1-.52-5.34c0-24.43,0-48.86-.06-73.3,0-2.64.57-3.58,3.42-3.53C56.2,46.58,71.8,43.86,86.52,37c11.92-5.56,22.21-13.2,30.06-23.91,2-2.77,2.11-2.71,4.26.09C133.66,30,151.09,39.26,171.33,43.8a104.25,104.25,0,0,0,26.12,2.55c2.44-.07,3.44.42,3.42,3.23-.12,24.73.1,49.46-.18,74.19-.09,8.25-3.38,15.89-6.8,23.34A92.58,92.58,0,0,1,186,160.77c-.65.77-.68,2.19-2.14,2.09-1.11-.07-1.49-.81-1.48-1.82a7.9,7.9,0,0,1,1.72-3.43,82.85,82.85,0,0,0,12.41-28.29,27,27,0,0,0,.79-6.21q0-34.51,0-69c0-4-.07-3.9-3.92-4.18-6.75-.49-13.53-.75-20.15-2.34a4.75,4.75,0,0,0-2.64-.16,4.52,4.52,0,0,1-2.83-.75c-3.91-1.48-8-2.48-11.87-4-13.46-5.31-25.41-12.77-34.8-24-2.16-2.59-2.37-2.57-4.27-.4-13.1,15-29.59,24.08-49,28.45a157.53,157.53,0,0,1-24.22,3.12c-3.7.24-3.79.17-3.8,4,0,19.43.45,38.87-.15,58.27-.51,16.78,4.42,31.56,13.52,45.28a10.92,10.92,0,0,1,2.11,3.91C54.07,163.51,53.7,163.51,51.76,161.3Z"/><path class="cls-8" d="M51.76,161.3c1,.21,1.91,2.42,2.93,0,1.63-.85,3.32-.07,5-.06,7.86.05,15.73-.34,23.59.19a5.39,5.39,0,0,0,2.58-.61c1.13-.32,2.07.67,3.19.5.95.13,2.08-.3,2.69.87a3.27,3.27,0,0,1-.81,2.77c-1.9,1.12-3.76,1.51-5.51-.27-1.07-.79-2.3-.48-3.47-.48-14.72,0-29.45,0-44.17-.05-1,0-2.63.64-2.87-.69-.28-1.51,1.21-2.07,2.58-2.27-.44,1.36.54,1.19,1.31,1.19,3,0,5.94,0,8.9,0C49,162,50.88,163.46,51.76,161.3Z"/><path class="cls-9" d="M182.87,161.25c1.51,3,2.06-.32,3.08-.48.07,2.86,2.27,1.21,3.48,1.64,2.49-1.68,5.28-1,8-1,.93,0,1.9.67,2.79-.16,1.22.13,2.32.75,2.16,2-.21,1.6-1.75.95-2.71,1q-25.28.06-50.56,0c-1,0-2,.19-2.8-.68-.91-.58-.8-1.15,0-1.72,3-1.09,6.1-.37,9.14-.51,8.85-.41,17.72.2,26.58-.35A1.82,1.82,0,0,1,182.87,161.25Z"/><path class="cls-10" d="M200.21,161.26c.47,1.4-.56,1.17-1.3,1.17-3.16,0-6.32,0-9.48,0,.16-.37.32-.73.47-1.09.61-1.51-.8-3.77,1-4.6,1.43-.63,3.32-.24,5-.31-.92,1.23-2.48.17-3.83,1.12A52.24,52.24,0,0,0,200.21,161.26Z"/><path class="cls-11" d="M34.69,197.5l-.12-.52c0-8.16.12-16.32-.06-24.48-.06-2.85.73-3.71,3.65-3.7,24,.11,48,.07,72,0,1.18,0,2.4.28,3.5-.4.12-.47.47-.49.85-.42l.28.25c.91.89,2.06.57,3.12.57,27.09,0,54.17.06,81.26,0,2.89,0,3.73.81,3.67,3.69-.19,8.36-.07,16.73-.08,25.09.44,3-.91,3.76-3.86,3.75q-79.6-.14-159.21,0C36.65,201.33,34.69,200.92,34.69,197.5Z"/><path class="cls-12" d="M145.68,164.11c.17,1,.87.78,1.59.77q25.26,0,50.52,0c.69,0,1.39,0,2.09,0,1.21,0,2.61-.05,2.62,1.66s-1.46,1.31-2.46,1.31q-36.16,0-72.34-.08c-2.5-1.56-2.51-2-.1-3.71,4-.74,7.93-.18,11.89-.36a17.92,17.92,0,0,0,4.45-.28A1.4,1.4,0,0,1,145.68,164.11Z"/><path class="cls-13" d="M117.58,167.75l-2.94.09.06-.09c-.48-1,.73-2.37-.58-3.27A2.24,2.24,0,0,1,115.3,162c1.92-.58,3.17.09,3.72,2A3.33,3.33,0,0,1,117.58,167.75Z"/><path class="cls-14" d="M122.32,167.74l-2.74-.05c-.5-1.3-.27-2.72-.66-4,.57-1.82,1.81-2.2,3.49-1.6a3.6,3.6,0,0,1,1.43,2.66A2.93,2.93,0,0,1,122.32,167.74Z"/><path class="cls-15" d="M127.32,164.83c-2.33,1.29.8,1.86.38,2.9l-3.5.11a1.55,1.55,0,0,1-.07-2.11c.66-.89,0-1.37-.37-2a1.64,1.64,0,0,1,.6-1.7,2.6,2.6,0,0,1,3,.23A2,2,0,0,1,127.32,164.83Z"/><path class="cls-16" d="M145.68,164.11l-1.14-.43c-1.14-.54-1.5-1.67-2.07-2.67-.33-1.06-.59-2.15.49-2.94a1.43,1.43,0,0,1,1.9.19c1.17,1.16,2,2.45,1,4.16l.44,1.13Z"/><path class="cls-17" d="M119.34,164.14c.33,1,1.32,1.3,2.18,1.57-.11,1.4-2,.6-1.94,2l-2,.06a8.49,8.49,0,0,0,.73-3.61A.77.77,0,0,1,119.34,164.14Z"/><path class="cls-18" d="M124.33,164.15c.54-.17,1-1.05,1.51-.64s.24,1-.21,1.53c-.7.81-1.57,1.55-1.43,2.8l-1.88-.1c.28-1,.56-2,.83-3A1.33,1.33,0,0,1,124.33,164.15Z"/><path class="cls-12" d="M85.38,164.73c1.77-.19,3.63.58,5.32-.49a2.57,2.57,0,0,1,1.74-1,2.87,2.87,0,0,1,1.84.69c1.39,1.18,2.3-1.34,3.66-.48,4.23.4,8.46.76,12.63-.56,1.84,1.6,1.89,3.22,0,4.85l-73.47.09c-1.12,0-2.65.33-2.56-1.57s1.64-1.39,2.72-1.39c14.64,0,29.27,0,43.9,0C82.6,164.83,84,164.76,85.38,164.73Z"/><path class="cls-19" d="M114.61,164.85l2,1c-.21,1.12-2,.58-1.87,1.93l-1.19.25-.67-.18c-1.39-.67-1.24-1.88-1.08-3.09C112.77,163.24,113.69,164.2,114.61,164.85Z"/><path class="cls-20" d="M112.42,164.18a7.28,7.28,0,0,0,.42,3.64l-2.23-.1c.54-1.55,1-3.09-.07-4.62a1.06,1.06,0,0,1,.74-1,1.28,1.28,0,0,1,1.24.39A1.4,1.4,0,0,1,112.42,164.18Z"/><path class="cls-21" d="M127.21,207.92c-5.78,4.48-11.54,3.94-17.29-.1-.48-1,.13-1,.92-1.11,1.64-.16,2.89,1,4.42,1.18a33.89,33.89,0,0,1,7.12-.07c1.58-.07,2.84-1.27,4.52-1.11S127.47,207.43,127.21,207.92Z"/><path class="cls-22" d="M122.38,207.82c-2.36,1.46-4.73,1.83-7.12.07-.11-.36-.32-1,0-1,2.31-.11,4.63-.12,7,0C122.66,206.85,122.51,207.46,122.38,207.82Z"/><path class="cls-1" d="M112.19,162.48h-1.06c-4.58,1.51-9.17,2-13.74,0-.78-.68-1-1.88-2.08-2.29-2.29-1.7-2.55,1.49-4.06,1.68-.86.56-1.71.91-2.47-.15s0-1.81.31-2.59c-.53.79-.71,2.06-2.11,2.1a6.11,6.11,0,0,1-4.07,1.27c-8.13-.08-16.26-.05-24.39,0-1.4,0-2.77,0-3.83-1.1-9.26-12.83-15.94-26.6-15.93-42.88,0-22.13.06-44.26,0-66.38,0-2.74.71-3.49,3.48-3.51,17-.14,33.24-3.35,48.43-11.17C100.92,32.1,110,25.26,117.11,16c1.06-1.38,1.73-2,3.08-.26C131.24,30.09,146.1,38.68,163.14,44c1.78.55,3.56,1.16,5.34,1.74-2.31,1.92-2.5,4.57-2.61,7.29,0,1.14.15,2.77-1.36,2.94-1.34.15-1.83-1.32-2.3-2.42-.28-.64-.47-1.31-.75-2a2.88,2.88,0,0,0-2.91-1.68,2,2,0,0,0-2.19,1.64c-.31,1.23-1.08,2.68.27,3.59,2.31,1.55,1.77,3.26.69,5.15-.59,1-.94,2.2-1.45,3.28-.39.8-.77,1.76-1.9,1.57s-1.21-1.21-1.47-2a15.47,15.47,0,0,0-.43-2.31c.15,1-.44,1.82-.74,2.74-1,3,1.39,5.78,4.35,5,2.16-.56,3,.46,3.43,2.19,1.6,6,4.3,11.58,6.6,17.32,1.16,2.89,2.8,5.48,4.15,8.08-.84-2.23-.39-3.06,1.75-2.76a4.5,4.5,0,0,1,4.09,4,5,5,0,0,0-.58-1.75c-1.6-2.85-1.57-3.46,1.09-5S180,86.49,182,84.62c1.2-1.09.27-2-.72-2.62-4.57-2.9-8.55-6.54-12.63-10a19.23,19.23,0,0,1-3.91-4.1c-1.47-2.28-1.08-3.15,1.56-3.48,1-.13,2-.57,2.92,0a6.61,6.61,0,0,0,3.59,1.77c4.21,3.16,9.11,4.57,14.22,5.61a4.84,4.84,0,0,0-1.34-2.87c-4.53-6.39-8.74-13-13.87-19-.75-.85-1.83-1.6-1.66-3-.34-.63-.89-1.43.56-1.08a104.58,104.58,0,0,0,18.31,2.48,39.65,39.65,0,0,0,5.65.21c2.88-.25,3.9.54,3.87,3.72-.19,16.63-.09,33.26-.09,49.89,0,4.78-.17,9.57,0,14.34.71,17-6.17,31.31-15.66,44.72a5.82,5.82,0,0,1-4.16,1.2c-11,0-21.9,0-32.85,0a9,9,0,0,0-1.28-2.87c-.39-.61-.31-1.78-1.44-1.24s-.19,1.32,0,2c.09.28.2.56.3.83.5,1.48-.52,2.15-1.6,2.24a61.12,61.12,0,0,1-13.52-.08c-.48-.07-.84-.5-1.25-.76h-2.77a1.74,1.74,0,0,1-2,0c-1.32-.07-2.88-.59-3,1.61h-1c-.24-1.93-1.61-1.82-3-1.66C114.26,163.06,113.23,163.37,112.19,162.48Z"/><path class="cls-23" d="M170.2,47c4.55,3.91,7.59,9,11.05,13.79,2.31,3.19,4.44,6.5,6.62,9.79.64,1,1.42,2,.62,3.47-2.86-1.54-6.06-2-9.07-3-2.27-.71-5.26-1.69-6.76-4.27-.91-1.21-2.72-.64-3.64-1.83a9.71,9.71,0,0,1-4.5.48c.83,2.64,2.83,4.18,4.69,5.69,4.52,3.65,8.6,7.88,13.84,10.64,1.91,1,1.22,2.68-.11,3.61-2.79,1.94-3.75,5.91-7.6,6.67-.75.15-1.36,1.51-.63,1.9,2.45,1.32,1.21,3.45,1.45,5.32-1.64-2.36-2.3-5.8-6.45-5.31,1.61,1.77,1.41,3.87.95,6.36-5.27-10.4-10.24-20.56-13.18-31.59-4.18,2.15-5.84,1.42-7.7-3.07a2,2,0,0,1,.18-1.93c.81-1.53,1.91-3,.69-4.86-.34-.51.32-1.51.67-1.41.73.22,1.64.75,1.6,1.71-.08,2,.55,3.78,1.06,6.32,1.38-2.89,2-5.44,3.54-7.52a1.18,1.18,0,0,0-1-1.94c-2.2,0-2.11-1.95-1.71-2.82.72-1.61-.34-4.47,2.94-4.61,2-.09,3.89,0,4.67,2.15a31.73,31.73,0,0,0,2,5.37c1-2.9.34-5.47.87-7.94.46-2.15,1.36-2.59,3.16-2.47C169,46.2,169.3,47,170.2,47Z"/><path class="cls-24" d="M87,161.2l2-3.63c.28-.52.56-1.18,1.3-.83s.53.94.23,1.52c-.59,1.14-1.16,2.29-1.74,3.43-.48.22-.51,1.23-1.33.82C86.94,162.25,87,161.71,87,161.2Z"/><path class="cls-25" d="M91.25,161.84a7.11,7.11,0,0,0,.59-1.33c.54-2.64,1.89-2.47,3.62-1.09,0,.13-.1.26-.14.38a10.19,10.19,0,0,0-1.66,2.73,2,2,0,0,1-1.24,1,1.65,1.65,0,0,1-1.72.67C90.3,163.3,91.32,162.7,91.25,161.84Z"/><path class="cls-26" d="M127.1,162.53c4.51,0,9,0,13.54-.1,1.1,0,2.47.41,2.83-1.3a5.56,5.56,0,0,1,1.07,2.55c-.43,1.52-1.7,1.07-2.71,1.08-4.83.05-9.67.05-14.51.07C127.25,164.06,127.17,163.3,127.1,162.53Z"/><path class="cls-27" d="M112.19,162.48h3.11a2.86,2.86,0,0,0-.69,2.37c-.93.43-1.49-.34-2.19-.67C112.34,163.61,112.27,163.05,112.19,162.48Z"/><path class="cls-28" d="M122.31,162.53h2v1.62a1.13,1.13,0,0,1-1.18.61Z"/><path class="cls-29" d="M97.42,161.21c.73,1.15,1.83,1.26,3.07,1.25,3.55,0,7.1,0,10.64,0l-.59.61a3.42,3.42,0,0,1-3.32,1.72c-2.55-.19-5.11,0-7.67-.06-1,0-2,.16-2.37-1.17A1.52,1.52,0,0,1,97.42,161.21Z"/><path class="cls-30" d="M97.42,161.21l-.24,2.38c-.73.63-1.15,1.68-2.3,1.75-1,.07-.93-.4-.49-1-.22-1,.8-1.69.58-2.67,0-.79-.16-1.62.57-2.22h-.08A2.5,2.5,0,0,1,97.42,161.21Z"/><path class="cls-31" d="M96,161.82c.05,1.2-.75,1.86-1.6,2.49-.68-.17-1.48-.06-2-.74l.58-1.15C93.88,161.67,94.82,161.16,96,161.82Z"/><path class="cls-23" d="M73.28,56.61a15.9,15.9,0,0,0,2.38-5.48c.84-2.5,2.76-2.47,4.79-2.41,2.25.08,2.54,1.74,2.44,3.35s1.43,4-2,4.34c-.66.07-.65,1.43-.2,2.13,1.29,2,1.8,4.36,2.88,6.79,1.51-2.55.46-5.74,3-7.73a2.88,2.88,0,0,1,.32,3,2.2,2.2,0,0,0,.12,2.16c1.43,2.29.65,4.94-1.59,7.16s-3.43-.33-5.26-1c-3,11-8.19,21.07-13.49,31.05-1.11-1.83-.85-3.82.73-5.71C63.35,93,63,96.67,61.37,98.72c-.41-1.55-.26-3.83.6-4.43,1.61-1.14,1.21-2-.27-2.47-3.76-1.15-4.85-5.07-7.7-7.19-1.27-.95-1-2.4.82-3.42C61.11,77.73,66.47,73,71.63,68.08c.73-.7,1.64-1.47,1.1-2.44-.42-.76-1.57.17-2,0-4.46-1.18-6.87,2.72-10.11,4.24-1.77.84-3.64,1-5.32,1.46-2.08.61-4,1.74-6.21,2.14-.62-1.44.18-2.44.83-3.4,4.66-7,9.77-13.66,14.94-20.28a14.58,14.58,0,0,1,2.11-2.12c1.43-1.22,3-2.73,5-1.81,1.72.78.67,2.68.87,4.06A22.41,22.41,0,0,1,73.28,56.61Z"/><path class="cls-32" d="M126,103.7c3.34-1.44,6.56-3.29,10.43-2.86,0,.2,0,.46-.05.49-4.95,2-5.16,2.06-4.86,7.48.18,3.18-.77,5.1-3.85,5.91a1.3,1.3,0,0,0-.26.14c-6.89,4.41-13.64,3.38-20.37-.45A4.37,4.37,0,0,1,104.4,110c.2-6.87.09-6.88-6.56-9.23-.56-.19-1.11-.43-1.68-.58S95,99.66,95,99s.62-.92,1.18-1.12c6.89-2.48,13.78-5,20.65-7.47a3,3,0,0,1,2.26,0c6.35,2.35,12.71,4.64,19.42,7.07-3,1-5.24-.45-7.56-1.13a24.17,24.17,0,0,1-4.73-1.76c-5.44-3-10.7-3-16.3-.14-3.57,1.84-7.56,2.86-12.06,4.5l12,4.76c.27.82-.34,1.07-.87,1.36-1,.33-2.29.28-2.29,1.84,0,1.76-.34,3.55,1.37,4.91,5.12,4,14.19,4.17,19.23.18,2-1.59,1.69-5.66-.55-6.92C126.27,104.77,125.67,104.5,126,103.7Z"/><path class="cls-33" d="M112.87,119l4.2,1.53a2.08,2.08,0,0,1,.53,1.23c-.27,1.77-1.37,3.29-1.55,5.09a2.49,2.49,0,0,1-.7,1.15c0,.39-.1.79-.14,1.18-.17,1.72-.32,3.44-2.84,2.21-.38-.18-.94,0-1.55.06l.51-3.24c-2.48,2.6-4.29.39-6.33-.18l5.19-1.79a86.14,86.14,0,0,0-9.7-2.69c-1.56-.39-3.88.15-3.4-3,.16-1.07-.74-2.37.17-3.56a.62.62,0,0,1,.76-.06c.67,2.83,2.58,4.26,5.38,4.65a9.78,9.78,0,0,1,1.14.33c4.24,1.31,4.24,1.31,7-1.93C112,119.62,112.43,119.31,112.87,119Z"/><path class="cls-34" d="M79.47,107.1c-.57,4.32-1.28,8-3,11.28-1.5,2.92-4.26,2.89-6,0-2.19-3.7-2.52-7.79-2.38-12.77,3.16,3.24,3.86,6.95,5.63,10.86C74,112.13,76.4,109.8,79.47,107.1Z"/><path class="cls-35" d="M88.18,152.37h9.54c-.66-3.21-3.76-5.34-3.3-8.92,2.92,1.79,5.13,4.19,7.49,6.41a4.07,4.07,0,0,1,1.17,4.55c-.6,1.68-2.37,2-4,2C95,156.53,91.5,154.87,88.18,152.37Z"/><path class="cls-36" d="M77.85,143.19a53.93,53.93,0,0,1,11.22,3.34A40.75,40.75,0,0,1,87,141.64a15.84,15.84,0,0,1-.33-5.73c2.85,3.73,5.63,6.77,6.39,10.94.44,2.39-1,3.82-3.44,3.59C84.77,150,81.42,147,77.85,143.19Z"/><path class="cls-37" d="M150.93,136.53c.68,4-.36,7.1-2.34,10.45a62.84,62.84,0,0,1,11.23-3.3,20.92,20.92,0,0,1-10.71,7.26,3.49,3.49,0,0,1-3.8-.89,3.7,3.7,0,0,1-.43-3.91A40.85,40.85,0,0,1,150.93,136.53Z"/><path class="cls-38" d="M159.55,93.71a29.51,29.51,0,0,1-1.37-9.12c0-.4-.64-.89.16-1.17a1.05,1.05,0,0,1,1.3.48c2,3.44,3.92,7,3.39,11.16a3.06,3.06,0,0,1-4.81,2.29,29.77,29.77,0,0,1-8.48-7.83C153.73,89.47,156.51,91.2,159.55,93.71Z"/><path class="cls-39" d="M78.35,93.23c2.55-2.76,5.77-4,10.33-4.45-3.36,3.1-5.57,6.34-9.17,8-2.73,1.29-5.15-.33-4.93-3.55A17.38,17.38,0,0,1,79.67,82C79.42,85.71,79.51,89.46,78.35,93.23Z"/><path class="cls-40" d="M158.11,107.91c3.64,1.91,5,4.89,6.14,8.77a39.85,39.85,0,0,1,5.26-11c.51,5.39,0,9.77-2.71,13.66-1.53,2.25-3.47,2.23-5.07,0C159.36,116.1,159.17,112.1,158.11,107.91Z"/><path class="cls-35" d="M68,118.68c3.33,2.59,5.35,5.48,7.68,8.7a15.91,15.91,0,0,1,3.58-9.87c.18,4,1.06,7.5.23,11.18a3.93,3.93,0,0,1-2.59,3.06c-1.29.55-2.28-.28-3.17-1.06C70.23,127.67,69,123.58,68,118.68Z"/><path class="cls-40" d="M149.32,78.05l-1.08-4.28c3.84,2,7.36,6.55,8.18,10.47a3.33,3.33,0,0,1-4.32,3.83,35.75,35.75,0,0,1-9.67-4.95c1.43-1.29,3.08-.66,4.5-.94,1.81-.73,3.33.22,4.77,1C149.75,82,149.42,80.07,149.32,78.05Z"/><path class="cls-41" d="M81.09,137.9c-.68-3.68-1.18-6.92.79-10.47,1.32,4,3.12,7.46,2.91,11.43-.14,2.79-1.82,4-4.42,2.93-4.3-1.84-6.72-5.44-9.15-10.18A54.36,54.36,0,0,1,81.09,137.9Z"/><path class="cls-35" d="M156.68,138.35a62,62,0,0,1,9.83-6.29c-2.46,5.06-5.18,8.73-9.84,10.52-1.91.73-3.54-.66-3.74-2.74-.38-4.14,1.62-7.66,2.87-12.11C157.8,131.53,157.22,134.83,156.68,138.35Z"/><path class="cls-42" d="M143.45,143.94a12.34,12.34,0,0,1-4.71,8.78h10.58c-3.36,2.92-7.14,4.75-11.51,4.08-3.78-.58-4.56-3.22-2.13-6.19a21.08,21.08,0,0,1,1.85-1.93A32.07,32.07,0,0,1,143.45,143.94Z"/><path class="cls-43" d="M90.73,81.69a8.28,8.28,0,0,1,4.72.92c-3.47,2-6.52,4.3-10.34,5-2.51.46-4-1-3.63-3.5.65-4.9,4-8,7.84-11.2.08,2.63-1.42,4.37-1.62,6.42l.06.41c.08.72-.36,1.32-.55,2.08A5.46,5.46,0,0,1,90.73,81.69Z"/><path class="cls-39" d="M162.11,127.83c2.37-3.26,4.41-6,7.2-8.22.09,4.06-2.75,10.06-5.66,12a3.21,3.21,0,0,1-5.26-2.22c-.65-3.61,0-7.19,0-11.46C161.17,121,161.82,124.08,162.11,127.83Z"/><path class="cls-44" d="M134.15,148.79c-1,3.34-3.44,5.28-6.67,7.06,3.79,1,7.32,1.49,10.45,3.16-2.71,1.35-9.49,1.55-12.14.37-3.37-1.49-3.77-3.87-1-6.21S130.82,149.92,134.15,148.79Z"/><path class="cls-37" d="M74.17,104.81a14.09,14.09,0,0,1,8.25-7.32c-1.72,4-3.39,7.35-6,10.11A3.23,3.23,0,0,1,71,106.18c-1.38-4.55-.59-8.89,1.32-13.52C73.79,96.62,74.05,100.32,74.17,104.81Z"/><path class="cls-45" d="M155.24,98.22c4.14,1,6.39,3.43,8.43,7.33a36,36,0,0,1,1.59-12.23,17,17,0,0,1,1.52,12.89c-1,3.41-3.85,3.86-6.13,1.12A43.69,43.69,0,0,1,155.24,98.22Z"/><path class="cls-35" d="M99.42,158.61c3.89-1.46,7.07-2.76,11.39-2.9-3.47-2.06-6.21-4-7.9-8,4.23,1.83,8.09,2.89,11,5.85,1.42,1.46.68,4.36-1.46,5.22C108.36,160.41,104.21,160.37,99.42,158.61Z"/><path class="cls-46" d="M116.55,99c.2-.2.39-.53.58-.53,7.58,0,15.17,0,22.76-.12,1.58,0,1.66.66,1.8,1.91.48,4.23-.09,8.51.7,12.73a4.51,4.51,0,0,1-.94,3.66.55.55,0,0,1-1-.1c-.46-1.25-1.53-2.38-1-3.84,1.27-3.58.05-7.35.87-11,.37-1.61-.53-2-2-2-6.56,0-13.11,0-19.67-.08C117.91,99.72,117.07,100,116.55,99Z"/><path class="cls-47" d="M112.44,63.47c5.47-.83,5.47-.83,6.85-5.39.6,4.06,2.12,6.34,6.53,5-3.52,1.89-4.83,4.13-2.57,7.83-2.77-2.85-5.24-2.85-8,0C117.63,67.1,116,65,112.44,63.47Z"/><path class="cls-48" d="M117.09,121.86c0-.46,0-.92,0-1.37,5.93,1.57,11.83,3.2,17.78,4.68,2,.49,3.49,1.35,3.1,3.52s-.25,5.1-3.53,5.64a1.78,1.78,0,0,1-1.36.44,2,2,0,0,1-1.54-1.76,8.78,8.78,0,0,1,.67-4.27c.81-1.66,2-2.68,3.94-1.68.35.9-1.09,1.41-.46,2.15a1.9,1.9,0,0,1,.54-1.55c-.15-1.38-1.22-.9-2-1A74.08,74.08,0,0,1,117.09,121.86Z"/><path class="cls-49" d="M147.05,81.48c-3.66-2.25-6.61-5.27-9.89-8.88a20.94,20.94,0,0,1,11.5,5.5,1.93,1.93,0,0,1,1,1c.49,1,1.18,2.14.38,3C149.07,83.09,148,82.25,147.05,81.48Z"/><path class="cls-50" d="M87.7,79.31c3.09-4,7.34-6.08,12.68-7.25-3.07,3.61-5.95,6.73-9.72,8.88-.82.87-1.85,1.46-2.88.71-.82-.59-.5-1.61,0-2.43Z"/><path class="cls-51" d="M116.44,153.45a8.43,8.43,0,0,0,4.8.22,29.85,29.85,0,0,0,0,3.91c.27,2-.4,2.55-2.37,2.51s-2.75-.42-2.49-2.45A35.9,35.9,0,0,0,116.44,153.45Z"/><path class="cls-52" d="M108.56,104.44a1.65,1.65,0,0,0,1.34-.72,56.55,56.55,0,0,0,16.07,0,1.83,1.83,0,0,0,1.41.78,11.71,11.71,0,0,1-10.46,4C113.93,108.11,110.48,107.56,108.56,104.44Z"/><path class="cls-53" d="M115.35,128l0-1.59a1.51,1.51,0,0,1,1.41-.31c4.12,1.4,8.47,2.32,11.93,5.25.66.95,1.9,1.59,1.67,3a.45.45,0,0,1-.75,0C124.89,132.09,120.39,129.43,115.35,128Z"/><path class="cls-54" d="M132.63,67.07c.44,2,1.62,2.35,3.31,2-.48,1.54-2.47,2.5-1,4.23-3.1.26-4.49-1.55-5.58-4C130.76,69.18,132.35,69.38,132.63,67.07Z"/><path class="cls-55" d="M159.8,147.08c1.54-1.09,3.22-.58,4.7-1-.06-.29-.1-.47-.14-.65-.24-1.06-2.81-1.15-1.48-2.57.88-.94,1.69.88,2.57,1.37a13.72,13.72,0,0,1,2.1,1.85c-1.38,1.31-3.15.44-4.48,1.17a5.25,5.25,0,0,0,0,.56c.14,1.11,2.86,1.11,1.5,2.5-1,1-1.84-.94-2.81-1.47A12.35,12.35,0,0,1,159.8,147.08Z"/><path class="cls-56" d="M108.43,69.14c-1,1.5-2.72,2.34-.94,4-3,0-4.59-1.41-5.63-3.92,1.19-.34,3.37.77,3-2.42C105.65,68.87,106.5,69.89,108.43,69.14Z"/><path class="cls-57" d="M178.15,114c.8,1.43,1.12,2.82-.26,4.11-1.73.19-3.56,1.42-5.11-.47-.88-.84-.68-1.82-.38-2.81C173.94,111.88,176.14,113.55,178.15,114Z"/><path class="cls-58" d="M65.05,115.75a2.13,2.13,0,0,1,.07,3,2.32,2.32,0,0,0-1.35.49,3,3,0,0,1-3.79-.19,2.63,2.63,0,0,1-.62-3.43C61.29,113.71,63.17,114.56,65.05,115.75Z"/><path class="cls-59" d="M80,149.86a3.43,3.43,0,0,1,1.72,1.89c-.34,3.18-1.08,3.83-4.69,4.08a1.75,1.75,0,0,1-1.24-1.23C76,152,76.89,149.94,80,149.86Z"/><path class="cls-60" d="M171.42,141.33a1.8,1.8,0,0,1-1.1,1.95,24.32,24.32,0,0,1-3.72-1.85c-1-.51-1.63-1.15-1.25-2.36C168.59,136.43,170,137,171.42,141.33Z"/><path class="cls-61" d="M112.87,119c.07.64,0,1.23-.64,1.57a52.58,52.58,0,0,1-6.71-2.08A19.45,19.45,0,0,0,97.85,117h-.3l-.29,0c.73-2.27,2.11-2.73,4.33-1.88C105.31,116.47,109.1,117.67,112.87,119Z"/><path class="cls-62" d="M61.8,110.27c-.06-1.29-1.68-1.32-2-2.74l2.3-1.18c-.39-1.17-1.71-.46-2.35-1.55,2.17-.09,3.85.65,5.86,1.32-1.1,1.25-2.53,1.36-3.61,2.06-.11,1.08,1.13,1.26,1.41,2.08A1.13,1.13,0,0,1,61.8,110.27Z"/><path class="cls-63" d="M59.61,115.82c-.23,2.76,1,3.73,3.56,3.12.56-.14,1.22-1.93,2-.15-1.35,2.22-3.3,2.6-5.24,1.11s-2.07-3.4-.27-5.24A.78.78,0,0,1,59.61,115.82Z"/><path class="cls-64" d="M150,154.63c1.92-1.47,3.77-1.47,5,.76s.26,3.79-2,4.64c-.06-.12-.12-.24-.19-.36.48-2.29-.65-3.7-2.57-4.68Z"/><path class="cls-65" d="M64.07,139.08c-.62-2.26-.48-4.23,2.19-5,1.76-.5,3.15-.09,3.48,2a3.81,3.81,0,0,0-.32.24,5.47,5.47,0,0,0-4.59,2.47A1.31,1.31,0,0,1,64.07,139.08Z"/><path class="cls-66" d="M172,125.86c1.39.35,2.72.7,4.07,1,.58.14.86.43.7,1a.81.81,0,0,1-1.1.66,12.23,12.23,0,0,0-4-.78c-.8,0-1.38-.22-1.2-1.18S171.34,125.87,172,125.86Z"/><path class="cls-67" d="M174.52,108.08c.09,1.8,1.32.9,2.15.89.57,0,1.24-.24,1.32.64.06.66-.47.79-1,.81-1.55.08-3,.82-4.82.42a5.68,5.68,0,0,1,2.29-3.45c.18.14.25.29.2.45S174.58,108.08,174.52,108.08Z"/><path class="cls-68" d="M165.46,138.82c.06,1.66,1.68,1.71,2.56,2.53s2.23.47,2.3,1.93c-2.49,1.06-3.75-1.38-5.58-2.12-.81-.33,0-1.63.75-2.27Z"/><path class="cls-69" d="M73.35,149.29c.43-1.55-1.15-4.09,2.12-4.24-2.15,1.15,2.3,6.24-3.26,5.38C71.82,149.28,73.09,149.79,73.35,149.29Z"/><path class="cls-70" d="M64.07,139.08a.27.27,0,0,0,.28-.27c2-.58,4.22-.63,5.45-2.71h-.06c1.3,1.56,1.16,3.13-.48,4.19C67.26,141.58,65.38,141.26,64.07,139.08Z"/><path class="cls-71" d="M152.94,160c-1.75,1.28-3.14.57-4.13-1-1.15-1.79-.62-3.32,1.18-4.43h-.08c.58,2.06,2,3.67,3,5.46Z"/><path class="cls-72" d="M174.52,108.08l0-.69c.2-2.22-1.22-.66-1.85-.74s-1.47.41-1.55-.69c-.06-.84.67-.77,1.25-.84l4.53-.59A6.12,6.12,0,0,1,174.52,108.08Z"/><path class="cls-73" d="M178.15,114c0,.39,0,.89-.16,1.13-.48.56-.47-.22-.68-.36-1.5-1-3-1.27-4.52-.08-.27.29-.5.26-.69-.08C173.49,111.57,175.37,111.38,178.15,114Z"/><path class="cls-74" d="M165.46,138.82l0,.07c.72-1.61,1.87-2.53,3.69-2,2.27.66,2.47,2.47,2.24,4.44C170,139.18,168.54,137.06,165.46,138.82Z"/><path class="cls-75" d="M175.74,122.94c-1.2-.54-4,.47-4-1.49,0-1.25,2.81.07,4.37,0,.6,0,1.6-.24,1.51.86S176.7,123.07,175.74,122.94Z"/><path class="cls-76" d="M82.25,159.56c-.42-.46-1.68-.49-.61-1.64A18.37,18.37,0,0,0,84,154.57c.35-.61.62-1,1.31-.6,1,.53.43,1,0,1.59-.64.86-1.2,1.78-1.79,2.68C83,158.63,83.43,159.84,82.25,159.56Z"/><path class="cls-77" d="M67.36,129.53c-1,2.45-3.61,1.68-5.38,2.59-.08,0-.47-.28-.56-.51A.78.78,0,0,1,62,130.5c1.33-.38,2.67-.72,4-1.07A1,1,0,0,1,67.36,129.53Z"/><path class="cls-78" d="M147.05,81.48c.92-.08,1.95,1.3,2.62.32.91-1.35-.43-2.51-1-3.7l.66,0,3.21,6.1-5.6-2Z"/><path class="cls-79" d="M77,155.83a6.93,6.93,0,0,0,4.69-4.08,2.39,2.39,0,0,1-.12,3.43C80.23,156.76,78.67,156.48,77,155.83Z"/><path class="cls-80" d="M80,149.86c-2.33.76-3,3-4.21,4.74-.53-1.66-.56-3.19.83-4.53C77.71,149,78.82,149.23,80,149.86Z"/><path class="cls-81" d="M175,133.09c-.8.91-3.83.85-1.39,3.19.08.08-.1.56-.28.73-.38.36-.72,0-1-.24-.91-1-1.8-2-2.7-3.06C171.3,131.92,173.14,132.28,175,133.09Z"/><path class="cls-82" d="M65.57,124.81c-1.64.23-3.28.47-4.92.67-.55.07-.95-.14-.94-.77s.33-.58.75-.66c1.69-.31,3.38-.66,5.06-1A1.28,1.28,0,0,1,65.57,124.81Z"/><path class="cls-83" d="M159.58,154.89c-.46.39-.77.86-1.16.94-.76.16-1.3-.5-1.69-1-.81-1-2.34-1.61-2.32-3.2a.61.61,0,0,1,.9-.47C156.85,152.21,157.71,154,159.58,154.89Z"/><path class="cls-84" d="M173.35,117.49a4,4,0,0,0,4.05-.44c.35-.27.42-.17.49,1-1.7,1.74-3.46,2.23-5.32.22C172.46,117.65,172.73,117.39,173.35,117.49Z"/><path class="cls-85" d="M175,133.09c-1.77.23-3.6,0-5.33.62-.27-.4-.85-.92-.75-1.16.5-1.23,1.81-.7,2.47-.53C172.62,132.34,174.55,130.54,175,133.09Z"/><path class="cls-86" d="M87.74,79.22c-.44,3,1.17,2.46,2.92,1.72,0,.25,0,.5.07.75-1.54,1.07-3.66.48-5.1,2C86.1,82,86.44,80.35,87.74,79.22Z"/><path class="cls-87" d="M61.8,110.27h1.63c.62.09,1.26.44,1.25,1s-.72.46-1.2.46c-.88,0-1.76,0-2.63-.07-.65-.06-1.8.62-1.76-.71s1.18-.54,1.83-.66A5.15,5.15,0,0,1,61.8,110.27Z"/><path class="cls-88" d="M59.61,115.82v-1.16c2.25-1.8,4-1.09,5.44,1.09C63.23,115.56,61.41,114.59,59.61,115.82Z"/><path class="cls-89" d="M65.57,124.81l0-1.75c1.31,2,1,4.37,1.84,6.47l-1.31-.1C66.26,127.85,65,126.42,65.57,124.81Z"/><path class="cls-90" d="M161.08,153.89c0-2.45-2.83-3.21-2.9-5.6C159.52,149.94,162.17,150.83,161.08,153.89Z"/><path class="cls-91" d="M129.59,134.33l.94-.11c.94-.87,1.84.76,2.78.05l1.11.06C133.22,136.8,132.61,136.8,129.59,134.33Z"/><path class="cls-92" d="M73.35,149.29c0,.78-.95.56-1.14,1.14-.9-.15-1.22-.89-1.59-1.59s-.25-1.5.52-1.69.66.64.72,1.18C72,149.24,72.58,149.39,73.35,149.29Z"/><path class="cls-93" d="M169,64.94c1.27.5,3.32-.56,3.64,1.83C171.23,66.59,169.55,66.92,169,64.94Z"/><path class="cls-94" d="M173.35,117.49l-.78.79a2.81,2.81,0,0,1-.47-3.72l.69.08A2.8,2.8,0,0,0,173.35,117.49Z"/><path class="cls-95" d="M82.25,159.56l1.26-1.32c-.46,1.54,1.23,1.37,1.95,2.25C83.89,161.39,83.12,160.27,82.25,159.56Z"/><path class="cls-96" d="M96,161.82c-.87.83-1.94.67-3,.6.4-1.38.14-3.31,2.54-3C95.45,160.26,96.35,160.92,96,161.82Z"/><path class="cls-97" d="M108.56,104.44c2.74,1.52,5.81,2.19,8.67,3.4,1.1.46,1.93-.21,2.8-.51,2.48-.86,4.9-1.89,7.35-2.85,1.6-.57,2.44-.77,2.57,1.7.25,4.61-1.44,6.78-5.82,8.67-6.67,2.87-12,.46-17.34-2.57-2.07-1.16-.7-3.66-1-5.53C105.34,104.35,106.22,103.51,108.56,104.44Z"/><path class="cls-98" d="M128.48,131.9c-4.09-2.54-8.75-3.72-13.15-5.53-.44-1.9.73-3.18,1.76-4.51,2.14-.42,4,.54,6,1.08,3.9,1.06,7.84,2,11.75,3,.79.21,2.39,0,1.27,1.69l.06,0c-1.87-.62-2.95.15-3.55,2.41-.26,1,.52,2.18-.59,3C130.4,134,129.46,132.9,128.48,131.9Z"/><path class="cls-99" d="M97.85,117a2.87,2.87,0,0,1,3.4-1.07c3.53,1.21,7,2.43,10.56,3.65.5.18.4.61.42,1a1.78,1.78,0,0,0-1.15,1.25c-.44,3.68-2.66,2.37-4.68,1.72s-3.9-1.23-5.87-1.77C98,121,96.92,119.57,97.85,117Z"/><path class="cls-100" d="M128.48,131.9l3.54,1.22c0,.86.65,1,1.29,1.15-1,2.16-1.85-.46-2.78-.05C130.06,133.27,128.42,133.33,128.48,131.9Z"/><path class="cls-101" d="M136.1,127.67c.05,1.16.33,2.35-.19,3.45-.22.46-.63,1.06-1.35.53,1.15-1.06-.56-3.29,1.6-3.92Z"/><path class="cls-102" d="M152.94,160.09c-2.67-.89-4-2.55-3-5.46a3.5,3.5,0,0,1,3.76,1.73C154.54,157.88,153.91,159,152.94,160.09Z"/><path class="cls-103" d="M69.8,136.1c-.42,3.38-2.22,4.27-5.45,2.71C65.41,135.57,66.69,134.93,69.8,136.1Z"/><text class="cls-104" transform="translate(53.35 184.25) scale(0.9 1)">LITTLE <tspan class="cls-105" x="68.32" y="0"> </tspan><tspan x="72.17" y="0">ANGELS</tspan></text><text class="cls-106" transform="translate(73.22 195.37) scale(1.05 1)">EDU<tspan class="cls-107" x="14.78" y="0">C</tspan><tspan class="cls-108" x="19.58" y="0">A</tspan><tspan x="24" y="0">TIONAL CENTRE</tspan></text></g></g></svg>